<svg width="512" height="512" viewBox="0 0 512 512" fill="none" xmlns="http://www.w3.org/2000/svg">
  <!-- Background circle -->
  <circle cx="256" cy="256" r="256" fill="#2563eb"/>
  
  <!-- RV Body -->
  <rect x="140" y="200" width="232" height="140" rx="12" fill="white"/>
  
  <!-- RV Windshield -->
  <path d="M 200 200 L 230 160 L 330 160 L 360 200 Z" fill="#94a3b8" stroke="white" stroke-width="3"/>
  
  <!-- RV Windows -->
  <rect x="160" y="220" width="60" height="50" rx="6" fill="#94a3b8"/>
  <rect x="240" y="220" width="60" height="50" rx="6" fill="#94a3b8"/>
  <rect x="320" y="220" width="40" height="50" rx="6" fill="#94a3b8"/>
  
  <!-- Wheels -->
  <circle cx="190" cy="350" r="30" fill="#1e293b" stroke="white" stroke-width="4"/>
  <circle cx="190" cy="350" r="15" fill="#475569"/>
  <circle cx="330" cy="350" r="30" fill="#1e293b" stroke="white" stroke-width="4"/>
  <circle cx="330" cy="350" r="15" fill="#475569"/>
  
  <!-- Analytics Chart Icon -->
  <g transform="translate(380, 140)">
    <rect x="0" y="30" width="15" height="40" rx="3" fill="#fbbf24"/>
    <rect x="20" y="20" width="15" height="50" rx="3" fill="#fbbf24"/>
    <rect x="40" y="10" width="15" height="60" rx="3" fill="#fbbf24"/>
  </g>
</svg>

